<svg width="256" height="86" viewBox="0 0 256 86" fill="none" xmlns="http://www.w3.org/2000/svg">
<path d="M28.1338 53.1636V64.5H21.3332C16.4868 64.5 12.7085 63.3273 9.99885 60.9818C7.28896 58.5842 5.93412 54.7013 5.93412 49.3327V31.9764H0.6187V20.8745H5.93412V10.2418H19.3008V20.8745H28.0557V31.9764H19.3008V49.4891C19.3008 50.7922 19.6135 51.7304 20.2389 52.3036C20.8642 52.8769 21.9064 53.1636 23.3656 53.1636H28.1338Z" fill="#4E3691"/>
<path d="M48.946 28.1455C50.5094 25.7478 52.4636 23.8714 54.8086 22.5164C57.1537 21.1091 59.7592 20.4055 62.6254 20.4055V34.5564H58.9515C55.6163 34.5564 53.1149 35.286 51.4474 36.7455C49.7797 38.1527 48.946 40.6545 48.946 44.2509V64.5H35.5793V20.8745H48.946V28.1455Z" fill="#4E3691"/>
<path d="M75.7367 16.34C73.3917 16.34 71.4637 15.6624 69.9523 14.3073C68.4933 12.9 67.7636 11.18 67.7636 9.14727C67.7636 7.06236 68.4933 5.34236 69.9523 3.98727C71.4637 2.58 73.3917 1.87636 75.7367 1.87636C78.0298 1.87636 79.9058 2.58 81.3648 3.98727C82.8762 5.34236 83.6317 7.06236 83.6317 9.14727C83.6317 11.18 82.8762 12.9 81.3648 14.3073C79.9058 15.6624 78.0298 16.34 75.7367 16.34ZM82.381 20.8745V64.5H69.0143V20.8745H82.381Z" fill="#4E3691"/>
<path d="M105.434 27.0509C106.737 25.0182 108.535 23.3764 110.828 22.1255C113.121 20.8745 115.805 20.2491 118.879 20.2491C122.475 20.2491 125.732 21.1613 128.65 22.9855C131.569 24.8096 133.862 27.4158 135.529 30.8036C137.249 34.1915 138.109 38.1267 138.109 42.6091C138.109 47.0915 137.249 51.0527 135.529 54.4927C133.862 57.8805 131.569 60.5127 128.65 62.3891C125.732 64.2133 122.475 65.1255 118.879 65.1255C115.857 65.1255 113.173 64.5 110.828 63.2491C108.535 61.9982 106.737 60.3824 105.434 58.4018V85.2964H92.0678V20.8745H105.434V27.0509ZM124.507 42.6091C124.507 39.2733 123.569 36.6673 121.693 34.7909C119.87 32.8624 117.603 31.8982 114.893 31.8982C112.235 31.8982 109.968 32.8624 108.092 34.7909C106.268 36.7195 105.356 39.3514 105.356 42.6873C105.356 46.0231 106.268 48.6551 108.092 50.5836C109.968 52.5122 112.235 53.4764 114.893 53.4764C117.551 53.4764 119.817 52.5122 121.693 50.5836C123.569 48.6031 124.507 45.9449 124.507 42.6091Z" fill="#4E3691"/>
<path d="M158.487 27.0509C159.791 25.0182 161.589 23.3764 163.881 22.1255C166.175 20.8745 168.858 20.2491 171.932 20.2491C175.528 20.2491 178.786 21.1613 181.703 22.9855C184.623 24.8096 186.915 27.4158 188.582 30.8036C190.302 34.1915 191.162 38.1267 191.162 42.6091C191.162 47.0915 190.302 51.0527 188.582 54.4927C186.915 57.8805 184.623 60.5127 181.703 62.3891C178.786 64.2133 175.528 65.1255 171.932 65.1255C168.911 65.1255 166.226 64.5 163.881 63.2491C161.589 61.9982 159.791 60.3824 158.487 58.4018V85.2964H145.121V20.8745H158.487V27.0509ZM177.56 42.6091C177.56 39.2733 176.622 36.6673 174.746 34.7909C172.923 32.8624 170.656 31.8982 167.946 31.8982C165.288 31.8982 163.021 32.8624 161.145 34.7909C159.322 36.7195 158.409 39.3514 158.409 42.6873C158.409 46.0231 159.322 48.6551 161.145 50.5836C163.021 52.5122 165.288 53.4764 167.946 53.4764C170.603 53.4764 172.87 52.5122 174.746 50.5836C176.622 48.6031 177.56 45.9449 177.56 42.6091Z" fill="#4E3691"/>
<path d="M204.898 16.34C202.553 16.34 200.624 15.6624 199.113 14.3073C197.653 12.9 196.925 11.18 196.925 9.14727C196.925 7.06236 197.653 5.34236 199.113 3.98727C200.624 2.58 202.553 1.87636 204.898 1.87636C207.19 1.87636 209.066 2.58 210.526 3.98727C212.036 5.34236 212.793 7.06236 212.793 9.14727C212.793 11.18 212.036 12.9 210.526 14.3073C209.066 15.6624 207.19 16.34 204.898 16.34ZM211.542 20.8745V64.5H198.175V20.8745H211.542Z" fill="#4E3691"/>
<path d="M227.951 16.34C225.606 16.34 223.678 15.6624 222.167 14.3073C220.707 12.9 219.978 11.18 219.978 9.14727C219.978 7.06236 220.707 5.34236 222.167 3.98727C223.678 2.58 225.606 1.87636 227.951 1.87636C230.244 1.87636 232.12 2.58 233.579 3.98727C235.09 5.34236 235.846 7.06236 235.846 9.14727C235.846 11.18 235.09 12.9 233.579 14.3073C232.12 15.6624 230.244 16.34 227.951 16.34ZM234.596 20.8745V64.5H221.229V20.8745H234.596Z" fill="#4E3691"/>
<path d="M244.556 3.57682V4.66745H242.387V11.7273H241.05V4.66745H238.869V3.57682H244.556ZM254.493 3.57682V11.7273H253.157V6.14508L250.671 11.7273H249.745L247.247 6.14508V11.7273H245.91V3.57682H247.353L250.214 9.96818L253.063 3.57682H254.493Z" fill="#4E3691"/>
</svg>
