<svg width="386" height="138" viewBox="0 0 386 138" fill="none" xmlns="http://www.w3.org/2000/svg">
<path d="M45.744 84.44V103H34.608C26.672 103 20.4853 101.08 16.048 97.24C11.6107 93.3147 9.392 86.9573 9.392 78.168V49.752H0.688V31.576H9.392V14.168H31.28V31.576H45.616V49.752H31.28V78.424C31.28 80.5573 31.792 82.0933 32.816 83.032C33.84 83.9707 35.5467 84.44 37.936 84.44H45.744ZM79.824 43.48C82.384 39.5547 85.584 36.4827 89.424 34.264C93.264 31.96 97.5307 30.808 102.224 30.808V53.976H96.208C90.7467 53.976 86.6507 55.1707 83.92 57.56C81.1893 59.864 79.824 63.96 79.824 69.848V103H57.936V31.576H79.824V43.48ZM123.694 24.152C119.854 24.152 116.697 23.0427 114.222 20.824C111.833 18.52 110.638 15.704 110.638 12.376C110.638 8.96266 111.833 6.14666 114.222 3.92799C116.697 1.62399 119.854 0.471992 123.694 0.471992C127.449 0.471992 130.521 1.62399 132.91 3.92799C135.385 6.14666 136.622 8.96266 136.622 12.376C136.622 15.704 135.385 18.52 132.91 20.824C130.521 23.0427 127.449 24.152 123.694 24.152ZM134.574 31.576V103H112.686V31.576H134.574ZM172.324 41.688C174.457 38.36 177.401 35.672 181.156 33.624C184.911 31.576 189.305 30.552 194.34 30.552C200.228 30.552 205.561 32.0453 210.34 35.032C215.119 38.0187 218.873 42.2853 221.604 47.832C224.42 53.3787 225.828 59.8213 225.828 67.16C225.828 74.4987 224.42 80.984 221.604 86.616C218.873 92.1627 215.119 96.472 210.34 99.544C205.561 102.531 200.228 104.024 194.34 104.024C189.391 104.024 184.996 103 181.156 100.952C177.401 98.904 174.457 96.2587 172.324 93.016V137.048H150.436V31.576H172.324V41.688ZM203.556 67.16C203.556 61.6987 202.02 57.432 198.948 54.36C195.961 51.2027 192.249 49.624 187.812 49.624C183.46 49.624 179.748 51.2027 176.676 54.36C173.689 57.5173 172.196 61.8267 172.196 67.288C172.196 72.7493 173.689 77.0587 176.676 80.216C179.748 83.3733 183.46 84.952 187.812 84.952C192.164 84.952 195.876 83.3733 198.948 80.216C202.02 76.9733 203.556 72.6213 203.556 67.16ZM259.199 41.688C261.332 38.36 264.276 35.672 268.031 33.624C271.786 31.576 276.18 30.552 281.215 30.552C287.103 30.552 292.436 32.0453 297.215 35.032C301.994 38.0187 305.748 42.2853 308.479 47.832C311.295 53.3787 312.703 59.8213 312.703 67.16C312.703 74.4987 311.295 80.984 308.479 86.616C305.748 92.1627 301.994 96.472 297.215 99.544C292.436 102.531 287.103 104.024 281.215 104.024C276.266 104.024 271.871 103 268.031 100.952C264.276 98.904 261.332 96.2587 259.199 93.016V137.048H237.311V31.576H259.199V41.688ZM290.431 67.16C290.431 61.6987 288.895 57.432 285.823 54.36C282.836 51.2027 279.124 49.624 274.687 49.624C270.335 49.624 266.623 51.2027 263.551 54.36C260.564 57.5173 259.071 61.8267 259.071 67.288C259.071 72.7493 260.564 77.0587 263.551 80.216C266.623 83.3733 270.335 84.952 274.687 84.952C279.039 84.952 282.751 83.3733 285.823 80.216C288.895 76.9733 290.431 72.6213 290.431 67.16ZM335.194 24.152C331.354 24.152 328.197 23.0427 325.722 20.824C323.333 18.52 322.138 15.704 322.138 12.376C322.138 8.96266 323.333 6.14666 325.722 3.92799C328.197 1.62399 331.354 0.471992 335.194 0.471992C338.949 0.471992 342.021 1.62399 344.41 3.92799C346.885 6.14666 348.122 8.96266 348.122 12.376C348.122 15.704 346.885 18.52 344.41 20.824C342.021 23.0427 338.949 24.152 335.194 24.152ZM346.074 31.576V103H324.186V31.576H346.074ZM372.944 24.152C369.104 24.152 365.947 23.0427 363.472 20.824C361.083 18.52 359.888 15.704 359.888 12.376C359.888 8.96266 361.083 6.14666 363.472 3.92799C365.947 1.62399 369.104 0.471992 372.944 0.471992C376.699 0.471992 379.771 1.62399 382.16 3.92799C384.635 6.14666 385.872 8.96266 385.872 12.376C385.872 15.704 384.635 18.52 382.16 20.824C379.771 23.0427 376.699 24.152 372.944 24.152ZM383.824 31.576V103H361.936V31.576H383.824Z" fill="white"/>
</svg>
